<svg  viewBox="0 0 49 48" fill="none" xmlns="http://www.w3.org/2000/svg">
<path d="M22.7667 29.899L19.0667 33.599C18.2867 34.379 17.0467 34.379 16.2467 33.619C16.0267 33.399 15.8067 33.199 15.5867 32.979C13.5267 30.899 11.6667 28.719 10.0067 26.439C8.36675 24.159 7.04675 21.879 6.08675 19.619C5.14675 17.339 4.66675 15.159 4.66675 13.079C4.66675 11.719 4.90675 10.419 5.38675 9.21902C5.86675 7.99902 6.62675 6.87902 7.68675 5.87902C8.96675 4.61902 10.3667 3.99902 11.8467 3.99902C12.4067 3.99902 12.9667 4.11902 13.4667 4.35902C13.9867 4.59902 14.4467 4.95902 14.8067 5.47902L19.4467 12.019C19.8067 12.519 20.0667 12.979 20.2467 13.419C20.4267 13.839 20.5267 14.259 20.5267 14.639C20.5267 15.119 20.3867 15.599 20.1067 16.059C19.8467 16.519 19.4667 16.999 18.9867 17.479L17.4667 19.059C17.2467 19.279 17.1467 19.539 17.1467 19.859C17.1467 20.019 17.1667 20.159 17.2067 20.319C17.2667 20.479 17.3267 20.599 17.3667 20.719C17.7267 21.379 18.3467 22.239 19.2267 23.279C20.1267 24.319 21.0867 25.379 22.1267 26.439C22.3267 26.639 22.5467 26.839 22.7467 27.039C23.5467 27.819 23.5667 29.099 22.7667 29.899Z" fill="none"/>
<path d="M44.6074 36.6601C44.6074 37.2201 44.5074 37.8001 44.3074 38.3601C44.2474 38.5201 44.1874 38.6801 44.1074 38.8401C43.7674 39.5601 43.3274 40.2401 42.7474 40.8801C41.7674 41.9601 40.6874 42.7401 39.4674 43.2401C39.4474 43.2401 39.4274 43.2601 39.4074 43.2601C38.2274 43.7401 36.9474 44.0001 35.5674 44.0001C33.5274 44.0001 31.3474 43.5201 29.0474 42.5401C26.7474 41.5601 24.4474 40.2401 22.1674 38.5801C21.3874 38.0001 20.6074 37.4201 19.8674 36.8001L26.4074 30.2601C26.9674 30.6801 27.4674 31.0001 27.8874 31.2201C27.9874 31.2601 28.1074 31.3201 28.2474 31.3801C28.4074 31.4401 28.5674 31.4601 28.7474 31.4601C29.0874 31.4601 29.3474 31.3401 29.5674 31.1201L31.0874 29.6201C31.5874 29.1201 32.0674 28.7401 32.5274 28.5001C32.9874 28.2201 33.4474 28.0801 33.9474 28.0801C34.3274 28.0801 34.7274 28.1601 35.1674 28.3401C35.6074 28.5201 36.0674 28.7801 36.5674 29.1201L43.1874 33.8201C43.7074 34.1801 44.0674 34.6001 44.2874 35.1001C44.4874 35.6001 44.6074 36.1001 44.6074 36.6601Z" fill="none"/>
</svg>
