<svg  viewBox="0 0 64 64" fill="none" xmlns="http://www.w3.org/2000/svg">
<g id="fi_620807">
<rect width="64" height="64" rx="32" fill="#F6A2A3"/>
<g id="Group">
<g id="Group_2">
<path id="Vector" d="M44.002 14.3666C43.021 13.4433 41.7656 13 40.5004 13C39.0761 13 37.6377 13.5616 36.5653 14.6354L36.1051 15.0956L35.6449 14.634C34.5724 13.5616 33.134 13 31.7098 13C30.4445 13 29.1891 13.4433 28.2081 14.3666C26.0506 16.3975 26.0126 19.7949 28.0927 21.8751L36.1051 29.8874L44.1174 21.8751C46.1975 19.7949 46.1595 16.3975 44.002 14.3666Z" fill="white"/>
</g>
</g>
<g id="Group_3">
<g id="Group_4">
<path id="Vector_2" d="M51.8665 33.9675C50.6351 33.1329 49.184 33.3693 47.8991 34.111C46.6141 34.8527 39.2365 41.1607 39.2365 41.1607L31.9743 41.1621C31.6366 41.1621 31.2706 40.7821 31.2706 40.4457C31.2706 40.0502 31.6154 39.742 31.9743 39.742H36.4175C37.9727 39.742 39.7136 38.7287 39.7136 36.9272C39.7136 35.0132 37.9727 34.1124 36.4175 34.1124C33.7195 34.1124 33.1945 34.1237 33.1945 34.1237C32.1137 34.1237 31.0173 34.0589 30.1729 33.6072C29.0469 33.0301 27.7493 32.7036 26.3644 32.7036C24.0394 32.7036 21.9579 33.6311 20.5308 35.0934L12.9519 42.5554L21.3963 50.9998L24.2111 48.185H38.4639C39.8825 48.185 41.2519 47.6643 42.3117 46.7227L51.9622 35.897C52.5519 35.3735 52.5182 34.4108 51.8665 33.9675Z" fill="white"/>
</g>
</g>
</g>
</svg>
