<svg  viewBox="0 0 16 16" fill="none" xmlns="http://www.w3.org/2000/svg">
<g id="home 7">
<path id="Icon" d="M2.66675 6.96055V11.9999C2.66675 12.7363 3.2637 13.3332 4.00008 13.3332H5.33341C5.7016 13.3332 6.00008 13.0348 6.00008 12.6666V8.66658C6.00008 8.29839 6.29856 7.99991 6.66675 7.99991H9.33341C9.7016 7.99991 10.0001 8.29839 10.0001 8.66658V12.6666C10.0001 13.0348 10.2986 13.3332 10.6667 13.3332H12.0001C12.7365 13.3332 13.3334 12.7363 13.3334 11.9999V6.96056C13.3334 6.16073 12.9744 5.40315 12.3554 4.89667L8.8444 2.02405C8.35324 1.62219 7.64692 1.62219 7.15576 2.02405L3.64478 4.89667C3.02575 5.40315 2.66675 6.16073 2.66675 6.96055Z" stroke="white" stroke-width="1.5" stroke-linecap="round"/>
</g>
</svg>
