<svg viewBox="0 0 19 19" fill="none" xmlns="http://www.w3.org/2000/svg">
<path fill-rule="evenodd" clip-rule="evenodd" d="M0.849609 9.39453C0.849609 5.79939 0.849609 4.00182 1.7063 2.70708C2.08886 2.12892 2.584 1.63378 3.16216 1.25122C4.4569 0.394531 6.25447 0.394531 9.84961 0.394531C13.4447 0.394531 15.2423 0.394531 16.5371 1.25122C17.1152 1.63378 17.6104 2.12892 17.9929 2.70708C18.8496 4.00182 18.8496 5.79939 18.8496 9.39453C18.8496 12.9897 18.8496 14.7872 17.9929 16.082C17.6104 16.6601 17.1152 17.1553 16.5371 17.5378C15.2423 18.3945 13.4447 18.3945 9.84961 18.3945C6.25447 18.3945 4.4569 18.3945 3.16216 17.5378C2.584 17.1553 2.08886 16.6601 1.7063 16.082C0.849609 14.7872 0.849609 12.9897 0.849609 9.39453ZM14.5092 9.39378C14.5092 11.9671 12.4232 14.0532 9.84984 14.0532C7.27652 14.0532 5.19043 11.9671 5.19043 9.39378C5.19043 6.82046 7.27652 4.73438 9.84984 4.73438C12.4232 4.73438 14.5092 6.82046 14.5092 9.39378ZM9.84984 12.4768C11.5525 12.4768 12.9328 11.0965 12.9328 9.39378C12.9328 7.69109 11.5525 6.31078 9.84984 6.31078C8.14714 6.31078 6.76684 7.69109 6.76684 9.39378C6.76684 11.0965 8.14714 12.4768 9.84984 12.4768ZM14.6932 5.5959C15.2979 5.5959 15.7881 5.10573 15.7881 4.50107C15.7881 3.89642 15.2979 3.40625 14.6932 3.40625C14.0886 3.40625 13.5984 3.89642 13.5984 4.50107C13.5984 5.10573 14.0886 5.5959 14.6932 5.5959Z" fill=""/>
</svg>
