<svg   viewBox="0 0 24 24" fill="none" xmlns="http://www.w3.org/2000/svg">
<g id="fi_5733207" clip-path="url(#clip0_193_1422)">
<path id="Vector" fill-rule="evenodd" clip-rule="evenodd" d="M13.4213 1.3632L14.8503 2.43289C15.2412 2.72543 15.6526 2.87515 16.14 2.90229L17.9223 3.00143C18.9895 3.06078 19.8562 3.78804 20.1 4.82876L20.5071 6.56675C20.6185 7.04206 20.8374 7.42118 21.1933 7.75526L22.4949 8.97687C23.2743 9.70831 23.4707 10.8226 22.9886 11.7765L22.1833 13.3695C21.9631 13.8052 21.887 14.2363 21.945 14.7211L22.1568 16.4935C22.2837 17.5548 21.718 18.5346 20.7355 18.9554L19.0945 19.6582C18.6458 19.8504 18.3104 20.1318 18.0432 20.5403L17.0662 22.0342C16.4812 22.9287 15.418 23.3157 14.3949 23.0065L12.6862 22.4901C12.2189 22.3489 11.7812 22.3489 11.3138 22.4901L9.60513 23.0065C8.58203 23.3157 7.51882 22.9287 6.93382 22.0342L5.9568 20.5403C5.68956 20.1318 5.35422 19.8504 4.90549 19.6582L3.26449 18.9553C2.28199 18.5345 1.71625 17.5547 1.8431 16.4934L2.05497 14.721C2.11291 14.2362 2.03688 13.8051 1.81666 13.3694L1.01139 11.7764C0.529236 10.8225 0.72569 9.70826 1.50503 8.97678L2.80661 7.75517C3.16258 7.42109 3.38144 7.04196 3.49277 6.56665L3.89992 4.82867C4.14367 3.788 5.01044 3.06073 6.07764 3.00134L7.85988 2.9022C8.34733 2.87511 8.75871 2.72534 9.14955 2.43279L10.5786 1.36311C11.4342 0.722699 12.5657 0.722699 13.4213 1.3632ZM11.0883 12.6094L9.53753 11.0586C9.13558 10.6566 8.4836 10.6566 8.08169 11.0586C7.67974 11.4605 7.67974 12.1125 8.08169 12.5144L10.3627 14.7954C10.7646 15.1973 11.4166 15.1973 11.8185 14.7954C13.1934 13.4205 14.5526 12.0302 15.9212 10.649C16.3202 10.2462 16.3189 9.59637 15.9167 9.19639C15.5144 8.79631 14.8627 8.79743 14.4632 9.20089L11.0883 12.6094ZM11.9999 4.331C9.883 4.331 7.96642 5.18909 6.57911 6.5764C5.1918 7.96376 4.33371 9.88029 4.33371 11.9972C4.33371 14.1141 5.1918 16.0307 6.57911 17.418C7.96642 18.8053 9.883 19.6634 11.9999 19.6634C14.1168 19.6634 16.0334 18.8053 17.4207 17.418C18.8081 16.0307 19.6661 14.1141 19.6661 11.9972C19.6661 9.88029 18.8081 7.96371 17.4207 6.5764C16.0334 5.18909 14.1168 4.331 11.9999 4.331ZM16.8904 7.1067C15.6389 5.85514 13.9098 5.081 11.9999 5.081C10.09 5.081 8.36097 5.85514 7.10941 7.1067C5.85785 8.35826 5.0837 10.0873 5.0837 11.9972C5.0837 13.9071 5.85785 15.6362 7.10941 16.8877C8.36097 18.1393 10.09 18.9134 11.9999 18.9134C13.9098 18.9134 15.6389 18.1393 16.8904 16.8878C18.142 15.6362 18.9161 13.9071 18.9161 11.9973C18.9161 10.0873 18.142 8.35826 16.8904 7.1067Z" fill="#022144"/>
</g>
<defs>
<clipPath id="clip0_193_1422">
<rect width="24" height="24" fill="white"/>
</clipPath>
</defs>
</svg>
