<svg  viewBox="0 0 65 64" fill="none" xmlns="http://www.w3.org/2000/svg">
<g id="fi_3030963">
<rect x="0.666748" width="64" height="64" rx="32" fill="#F6A2A3"/>
<g id="Solid">
<path id="Vector" d="M38.9346 26.5715H39.0439L49.1309 16.7499C49.5498 16.336 49.7874 15.773 49.7918 15.1842C49.7911 14.6051 49.5608 14.0499 49.1513 13.6404C48.7419 13.231 48.1867 13.0007 47.6076 13H47.5847C47.0056 13.0017 46.4505 13.2317 46.0399 13.6401L33.087 26.5929C33.2262 26.5786 33.3661 26.5715 33.506 26.5715H38.9346ZM45.5216 15.913L46.8787 17.2702L45.9191 18.2298L44.5619 16.8727L45.5216 15.913ZM43.4859 17.9487L44.843 19.3059L43.8833 20.2656L42.5262 18.9084L43.4859 17.9487ZM41.4502 19.9845L42.8073 21.3416L41.8476 22.3013L40.4905 20.9441L41.4502 19.9845ZM39.4144 22.0202L40.7716 23.3773L39.8119 24.337L38.4548 22.9799L39.4144 22.0202ZM37.3787 24.0559L38.7359 25.4131L37.7762 26.3727L36.419 25.0156L37.3787 24.0559ZM45.8677 21.8215H52.5061V39.4464C50.7982 39.3559 49.1253 38.9276 47.5841 38.1863C46.0428 37.445 44.664 36.4053 43.5273 35.1275L42.156 33.5849C42.0924 33.5133 42.0143 33.456 41.9269 33.4167C41.8395 33.3775 41.7447 33.3572 41.6489 33.3572H33.506C32.7861 33.3572 32.0957 33.0712 31.5867 32.5622C31.0777 32.0532 30.7917 31.3628 30.7917 30.6429C30.7917 29.923 31.0777 29.2326 31.5867 28.7236C32.0957 28.2146 32.7861 27.9286 33.506 27.9286H46.3989V26.5715H40.9892L45.8677 21.8215ZM20.4144 34.2345C20.0023 33.8216 19.7709 33.262 19.7709 32.6786C19.7709 32.0952 20.0023 31.5357 20.4144 31.1227L27.927 23.6101C28.4928 23.0412 29.1659 22.5902 29.9071 22.2832C30.6484 21.9761 31.4432 21.8192 32.2456 21.8215H35.9392L23.5259 34.2348C23.1132 34.6473 22.5536 34.879 21.9701 34.879C21.3867 34.879 20.827 34.6473 20.4144 34.2348V34.2345ZM52.5061 40.8045V41.9457C51.932 42.6524 51.2081 43.2226 50.3865 43.6149C49.565 44.0073 48.6665 44.2121 47.7561 44.2144H45.0418C44.9466 44.2144 44.8526 44.2344 44.7657 44.2731C44.6788 44.3118 44.601 44.3683 44.5374 44.439L39.27 50.2917C39.0715 50.5064 38.8324 50.6796 38.5665 50.8012C38.3006 50.9228 38.0132 50.9904 37.721 51.0001C36.5226 51.0222 35.5417 50.0093 35.5417 48.8107V48.7744C35.5417 48.4935 35.5971 48.2153 35.7046 47.9557C35.8121 47.6962 35.9697 47.4604 36.1683 47.2618L36.1861 47.2439L42.1287 41.3013L41.1691 40.3417L35.2265 46.284C35.0225 46.4881 34.7804 46.6501 34.514 46.7607C34.1726 46.8973 33.803 46.9483 33.4374 46.9095C33.0717 46.8706 32.7211 46.743 32.4161 46.5378C31.3128 45.7586 31.1494 44.1373 32.1134 43.1734L38.0571 37.2297L37.0974 36.2701L31.1552 42.2126C30.204 43.1638 28.6 43.0227 27.8108 41.9406C27.3535 41.3139 27.1453 40.0521 27.7599 39.4529L32.708 34.635C32.9708 34.6877 33.2381 34.7142 33.506 34.7143H41.3442L42.513 36.0291C43.7771 37.45 45.3121 38.6043 47.0281 39.4243C48.744 40.2443 50.6064 40.7136 52.5061 40.8045ZM29.4346 30.6429C29.4346 30.503 29.4417 30.3632 29.456 30.224L13.8274 45.8525V50.9792C16.451 50.8211 18.9248 49.7037 20.7779 47.8399L24.006 44.6119V41.5001C24.006 41.4095 24.0242 41.3197 24.0594 41.2363C24.0946 41.1528 24.1462 41.0772 24.2112 41.014L31.3308 34.0819C30.7504 33.7151 30.2722 33.2074 29.9406 32.6061C29.6091 32.0049 29.435 31.3295 29.4346 30.6429ZM19.282 46.7048C18.1492 47.6981 16.829 48.4546 15.3991 48.9296L14.9699 47.642C16.2287 47.2239 17.391 46.558 18.3883 45.6835L22.2019 42.3465L23.0956 43.3679L19.282 46.7048ZM26.919 37.2302L25.5619 35.8731L26.5215 34.9134L27.8787 36.2706L26.919 37.2302ZM28.9547 35.1945L27.5976 33.8374L28.5573 32.8777L29.9144 34.2348L28.9547 35.1945Z" fill="white"/>
</g>
</g>
</svg>
