<svg  viewBox="0 0 16 15" fill="none" xmlns="http://www.w3.org/2000/svg">
<path id="Star" d="M7.52482 0.451233C7.67518 -0.0079844 8.32481 -0.00798517 8.47518 0.451232L9.91888 4.86045C9.98603 5.06551 10.1771 5.20437 10.3929 5.20486L15.0325 5.21538C15.5157 5.21648 15.7164 5.83431 15.3261 6.11922L11.5789 8.85479C11.4046 8.98202 11.3316 9.20669 11.3978 9.41206L12.8215 13.8278C12.9698 14.2877 12.4442 14.6695 12.0526 14.3864L8.29297 11.6678C8.11812 11.5414 7.88188 11.5414 7.70703 11.6678L3.94737 14.3864C3.55581 14.6695 3.03024 14.2877 3.17852 13.8278L4.60221 9.41206C4.66842 9.20669 4.59542 8.98202 4.42114 8.85479L0.673858 6.11922C0.283581 5.83431 0.484327 5.21648 0.967533 5.21538L5.60707 5.20486C5.82285 5.20437 6.01397 5.06551 6.08112 4.86045L7.52482 0.451233Z" fill="#F6A2A3"/>
</svg>
