<svg  viewBox="0 0 24 25" fill="none" xmlns="http://www.w3.org/2000/svg">
<g id="vuesax/linear/translate">
<g id="translate">
<path id="Vector" d="M19.06 19.1699L16.92 14.8999L14.78 19.1699" stroke="#292D32" stroke-width="1.5" stroke-linecap="round" stroke-linejoin="round"/>
<path id="Vector_2" d="M15.1699 18.4102H18.6899" stroke="#292D32" stroke-width="1.5" stroke-linecap="round" stroke-linejoin="round"/>
<path id="Vector_3" d="M16.9201 22.4998C14.1201 22.4998 11.8401 20.2298 11.8401 17.4198C11.8401 14.6198 14.1101 12.3398 16.9201 12.3398C19.7201 12.3398 22.0001 14.6098 22.0001 17.4198C22.0001 20.2298 19.7301 22.4998 16.9201 22.4998Z" stroke="#292D32" stroke-width="1.5" stroke-linecap="round" stroke-linejoin="round"/>
<path id="Vector_4" d="M5.02 2.5H8.94C11.01 2.5 12.01 3.50002 11.96 5.52002V9.44C12.01 11.51 11.01 12.51 8.94 12.46H5.02C3 12.5 2 11.5 2 9.42999V5.51001C2 3.50001 3 2.5 5.02 2.5Z" stroke="#292D32" stroke-width="1.5" stroke-linecap="round" stroke-linejoin="round"/>
<g id="Group">
<path id="Vector_5" d="M9.00995 6.3501H4.94995" stroke="#292D32" stroke-width="1.5" stroke-linecap="round" stroke-linejoin="round"/>
<path id="Vector_6" d="M6.96997 5.66992V6.34991" stroke="#292D32" stroke-width="1.5" stroke-linecap="round" stroke-linejoin="round"/>
<path id="Vector_7" d="M7.98994 6.33984C7.98994 8.08984 6.61994 9.50983 4.93994 9.50983" stroke="#292D32" stroke-width="1.5" stroke-linecap="round" stroke-linejoin="round"/>
<path id="Vector_8" d="M9.0099 9.51001C8.2799 9.51001 7.61991 9.12 7.15991 8.5" stroke="#292D32" stroke-width="1.5" stroke-linecap="round" stroke-linejoin="round"/>
</g>
<g id="Group_2">
<path id="Vector_9" d="M2 15.5C2 19.37 5.13 22.5 9 22.5L7.95 20.75" stroke="#292D32" stroke-width="1.5" stroke-linecap="round" stroke-linejoin="round"/>
<path id="Vector_10" d="M22 9.5C22 5.63 18.87 2.5 15 2.5L16.05 4.25" stroke="#292D32" stroke-width="1.5" stroke-linecap="round" stroke-linejoin="round"/>
</g>
</g>
</g>
</svg>
